# xmcd
#
# Track frame offsets:
#	150
#	10650
#	21397
#	31680
#	43400
#	58367
#	69807
#	83195
#	97522
#	110720
#	122037
#	134625
#	145840
#	165705
#	184642
#	198495
#	210420
#	220625
#	233527
#
# Disc length: 3280 seconds
#
# Revision: 1
# Processed by: cddbd v1.5.2PL0 Copyright (c) Steve Scherf et al.
# Submitted via: audiograbber 1.83.01
#
DISCID=030cce13
DTITLE=Carl Perkins - Country Gold -His Greatest Hits-
DYEAR=1900
DGENRE=Country
TTITLE0=What Am Living For
TTITLE1=I Can Feel It
TTITLE2=I Don't Like What I'm Seeing In You
TTITLE3=Don't Get On Getting It On
TTITLE4=The Hurt Put On By You
TTITLE5=I Want You Back Again
TTITLE6=Country Soul
TTITLE7=Redneck
TTITLE8=Georgia Court Room
TTITLE9=Born To Boogie
TTITLE10=Take Me Back
TTITLE11=Sing A Song With Me
TTITLE12=Bed Time Religion
TTITLE13=Love Kept Us Together
TTITLE14=I Don't Want To Bring On The Rain
TTITLE15=Match Box
TTITLE16=Daddy Sang Bass
TTITLE17=Halleluja Special
TTITLE18=Sunday
EXTD=
EXTT0=
EXTT1=
EXTT2=
EXTT3=
EXTT4=
EXTT5=
EXTT6=
EXTT7=
EXTT8=
EXTT9=
EXTT10=
EXTT11=
EXTT12=
EXTT13=
EXTT14=
EXTT15=
EXTT16=
EXTT17=
EXTT18=
PLAYORDER=
